<!-- Generated by IcoMoon.io -->
<svg version="1.1" xmlns="http://www.w3.org/2000/svg" width="1024" height="1024" viewBox="0 0 1024 1024">
<title></title>
<g id="icomoon-ignore">
</g>
<path d="M511.968 410.095c98.647 0 178.591-139.489 178.591-238.104 0-98.647-79.944-171.991-178.591-171.991-98.615 0-178.591 73.343-178.591 171.991 0 98.615 79.976 238.104 178.591 238.104z"></path>
<path d="M599.589 743.924l-48.934 28.343c-9.928 5.598-27.203 10.312-38.527 10.184h-0.256c-11.453 0.128-28.727-4.586-38.527-10.184l-48.934-28.343c-14.769-8.52-15.782-29.25-2.047-39.529 24.92-18.81 55.93-29.996 89.637-29.996 33.547 0 64.588 11.186 89.605 29.996 13.639 10.28 12.721 31.010-2.015 39.529zM658.057 798.585c7.123-1.525 14.513-2.271 21.998-2.271h30.263c-13.479-97.39-97.262-172.78-198.319-172.78-101.185 0-184.84 75.39-198.308 172.78h30.22c7.518 0 14.907 0.747 21.87 2.271 5.491-12.199 20.719-17.798 33.185-10.674l22.905 13.212c24.761 14.385 42.824 31.787 59.609 50.502 7.518 8.233 18.319 13.468 30.519 13.468 12.071 0 23.001-5.235 30.519-13.468 16.763-18.714 34.816-36.117 56.42-48.71l25.933-14.864c12.465-7.262 27.587-1.536 33.185 10.536z"></path>
<path d="M585.204 953.951c-27.949 15.75-61.389 22.745-96.6 17.403-17.798-2.666-34.709-8.744-49.98-17.403-8.126 15.515-20.069 28.727-34.454 38.527 31.17 19.941 68.171 31.521 107.828 31.521 39.668 0 76.66-11.58 107.796-31.521-14.481-9.8-26.328-23.012-34.593-38.527z"></path>
<path d="M341.15 853.513h-84.827c-1.003-9.8-1.759-19.685-1.759-29.74 0-20.986 2.538-41.32 7.358-60.782 27.331-112.777 129.038-196.655 250.079-196.655 32.15 0 62.925 5.822 91.268 16.763l105.024-136.663c-17.67-7.379-36.629-12.199-56.186-14.215-2.442-0.256-4.979-0.395-7.39-0.651-37.386 32.278-82.247 53.136-132.717 53.136-50.598 0-95.363-20.858-132.845-53.136-2.442 0.256-4.852 0.395-7.262 0.651-84.657 8.754-155.356 69.888-175.040 152.53-13.735 57.466-20.858 116.978-20.858 178.239v127.257c0 35.104 28.471 63.576 63.576 63.576h104.341c28.631 0 51.504-24.046 49.98-52.88-1.397-27.096-25.667-47.431-52.741-47.431z"></path>
<path d="M827.158 584.751c-9.053-37.482-28.471-70.667-55.055-96.376l-101.846 132.621c44.903 35.082 77.928 84.795 91.791 141.994 4.852 19.461 7.39 39.796 7.39 60.782 0 10.056-0.651 19.941-1.791 29.74h-87.589c-28.599 0-51.472 23.78-49.948 52.773 1.397 27.203 25.677 47.538 52.869 47.538h101.452c35.082 0 63.576-28.471 63.576-63.576v-127.257c0-61.261-7.251-120.774-20.847-178.239z"></path>
</svg>
