<svg xmlns="http://www.w3.org/2000/svg" xmlns:xlink="http://www.w3.org/1999/xlink" width="500" zoomAndPan="magnify" viewBox="0 0 375 374.999991" height="500" preserveAspectRatio="xMidYMid meet" version="1.0"><path fill="#ffffff" d="M 26.066406 192.300781 L 82.316406 217.910156 L 82.316406 371.570312 L 10.519531 339.101562 C 4.117188 335.898438 0 329.496094 0 322.179688 L 0 208.765625 C 0 202.363281 3.203125 196.875 8.230469 193.214844 C 11.433594 191.386719 14.632812 190.472656 18.292969 190.472656 C 20.578125 190.472656 23.324219 190.929688 26.066406 192.300781 Z M 364.480469 212.882812 L 292.683594 180.410156 L 292.683594 334.070312 L 348.933594 359.679688 C 354.878906 362.421875 361.28125 361.964844 366.3125 358.308594 C 371.796875 354.648438 374.542969 349.160156 374.542969 342.757812 L 374.542969 229.34375 C 375 222.484375 370.882812 215.625 364.480469 212.882812 Z M 195.273438 263.644531 C 193.445312 265.929688 190.703125 267.757812 187.5 267.757812 C 184.296875 267.757812 181.554688 266.386719 179.726562 263.644531 L 142.226562 208.765625 L 100.609375 219.285156 L 100.609375 374.3125 L 274.390625 333.15625 L 274.390625 177.667969 L 250.152344 183.613281 Z M 264.785156 48.246094 C 279.421875 77.972656 277.132812 111.355469 258.839844 138.339844 L 187.5 242.605469 L 116.160156 138.796875 C 97.867188 111.8125 95.578125 77.972656 110.214844 48.703125 C 124.390625 19.894531 151.371094 2.058594 182.925781 0.6875 C 186.128906 0.6875 188.871094 0.6875 192.074219 0.6875 C 223.628906 2.058594 250.609375 19.894531 264.785156 48.246094 Z M 237.804688 88.492188 C 237.804688 60.59375 215.394531 38.1875 187.5 38.1875 C 159.605469 38.1875 137.195312 60.59375 137.195312 88.492188 C 137.195312 116.386719 159.605469 138.796875 187.5 138.796875 C 215.394531 138.796875 237.804688 115.929688 237.804688 88.492188 Z M 187.5 56.480469 C 169.664062 56.480469 155.488281 70.65625 155.488281 88.492188 C 155.488281 106.328125 169.664062 120.503906 187.5 120.503906 C 205.335938 120.503906 219.511719 106.328125 219.511719 88.492188 C 219.511719 70.65625 205.335938 56.480469 187.5 56.480469 Z M 187.5 56.480469 " fill-opacity="1" fill-rule="nonzero"/></svg>