<svg xmlns="http://www.w3.org/2000/svg" xmlns:xlink="http://www.w3.org/1999/xlink" width="500" zoomAndPan="magnify" viewBox="0 0 375 374.999991" height="500" preserveAspectRatio="xMidYMid meet" version="1.0"><defs><clipPath id="a1cc8bffe3"><path d="M 230 178 L 310.554688 178 L 310.554688 350 L 230 350 Z M 230 178 " clip-rule="nonzero"/></clipPath></defs><path fill="#ffffff" d="M 187.457031 150.238281 C 223.59375 150.238281 252.878906 99.140625 252.878906 63.015625 C 252.878906 26.878906 223.59375 0.0117188 187.457031 0.0117188 C 151.332031 0.0117188 122.035156 26.878906 122.035156 63.015625 C 122.035156 99.140625 151.332031 150.238281 187.457031 150.238281 " fill-opacity="1" fill-rule="nonzero"/><path fill="#ffffff" d="M 219.554688 272.527344 L 201.628906 282.910156 C 197.992188 284.960938 191.664062 286.6875 187.515625 286.640625 L 187.421875 286.640625 C 183.226562 286.6875 176.898438 284.960938 173.308594 282.910156 L 155.382812 272.527344 C 149.972656 269.40625 149.601562 261.8125 154.632812 258.046875 C 163.761719 251.15625 175.121094 247.058594 187.46875 247.058594 C 199.757812 247.058594 211.128906 251.15625 220.292969 258.046875 C 225.289062 261.8125 224.953125 269.40625 219.554688 272.527344 Z M 240.972656 292.550781 C 243.582031 291.992188 246.289062 291.71875 249.03125 291.71875 L 260.117188 291.71875 C 255.179688 256.042969 224.488281 228.425781 187.46875 228.425781 C 150.402344 228.425781 119.757812 256.042969 114.824219 291.71875 L 125.894531 291.71875 C 128.648438 291.71875 131.355469 291.992188 133.90625 292.550781 C 135.917969 288.082031 141.496094 286.03125 146.0625 288.640625 L 154.453125 293.480469 C 163.523438 298.75 170.140625 305.125 176.289062 311.980469 C 179.042969 314.996094 183 316.914062 187.46875 316.914062 C 191.890625 316.914062 195.894531 314.996094 198.648438 311.980469 C 204.789062 305.125 211.402344 298.75 219.316406 294.136719 L 228.816406 288.691406 C 233.382812 286.03125 238.921875 288.128906 240.972656 292.550781 " fill-opacity="1" fill-rule="nonzero"/><path fill="#ffffff" d="M 214.285156 349.464844 C 204.046875 355.234375 191.796875 357.796875 178.898438 355.839844 C 172.378906 354.863281 166.183594 352.636719 160.589844 349.464844 C 157.613281 355.148438 153.238281 359.988281 147.96875 363.578125 C 159.386719 370.882812 172.941406 375.125 187.46875 375.125 C 202 375.125 215.550781 370.882812 226.957031 363.578125 C 221.652344 359.988281 217.3125 355.148438 214.285156 349.464844 " fill-opacity="1" fill-rule="nonzero"/><path fill="#ffffff" d="M 124.882812 312.671875 L 93.808594 312.671875 C 93.441406 309.082031 93.164062 305.460938 93.164062 301.777344 C 93.164062 294.089844 94.09375 286.640625 95.859375 279.511719 C 105.871094 238.199219 143.128906 207.472656 187.46875 207.472656 C 199.246094 207.472656 210.519531 209.605469 220.902344 213.613281 L 259.375 163.550781 C 252.902344 160.847656 245.957031 159.082031 238.792969 158.34375 C 237.898438 158.25 236.96875 158.199219 236.085938 158.105469 C 222.390625 169.929688 205.957031 177.570312 187.46875 177.570312 C 168.933594 177.570312 152.535156 169.929688 138.804688 158.105469 C 137.910156 158.199219 137.027344 158.25 136.144531 158.34375 C 105.132812 161.550781 79.234375 183.945312 72.023438 214.21875 C 66.992188 235.269531 64.382812 257.070312 64.382812 279.511719 L 64.382812 326.128906 C 64.382812 338.988281 74.8125 349.417969 87.671875 349.417969 L 125.894531 349.417969 C 136.382812 349.417969 144.761719 340.609375 144.203125 330.046875 C 143.691406 320.121094 134.800781 312.671875 124.882812 312.671875 " fill-opacity="1" fill-rule="nonzero"/><g clip-path="url(#a1cc8bffe3)"><path fill="#ffffff" d="M 302.917969 214.21875 C 299.601562 200.488281 292.488281 188.332031 282.75 178.914062 L 245.441406 227.496094 C 261.890625 240.347656 273.988281 258.558594 279.066406 279.511719 C 280.84375 286.640625 281.773438 294.089844 281.773438 301.777344 C 281.773438 305.460938 281.535156 309.082031 281.117188 312.671875 L 249.03125 312.671875 C 238.554688 312.671875 230.175781 321.382812 230.734375 332.003906 C 231.246094 341.96875 240.140625 349.417969 250.101562 349.417969 L 287.265625 349.417969 C 300.117188 349.417969 310.554688 338.988281 310.554688 326.128906 L 310.554688 279.511719 C 310.554688 257.070312 307.898438 235.269531 302.917969 214.21875 " fill-opacity="1" fill-rule="nonzero"/></g></svg>