<svg xmlns="http://www.w3.org/2000/svg" xmlns:xlink="http://www.w3.org/1999/xlink" width="500" zoomAndPan="magnify" viewBox="0 0 375 374.999991" height="500" preserveAspectRatio="xMidYMid meet" version="1.0"><defs><clipPath id="9cb5ab5ce3"><path d="M 42.65625 0 L 332.15625 0 L 332.15625 375 L 42.65625 375 Z M 42.65625 0 " clip-rule="nonzero"/></clipPath></defs><g clip-path="url(#9cb5ab5ce3)"><path fill="#ffffff" d="M 50.355469 0 L 273.152344 0 L 273.152344 43.097656 C 273.152344 51.855469 280.273438 58.972656 289.03125 58.972656 L 332.128906 58.972656 L 332.128906 367.441406 C 332.128906 371.605469 328.730469 375 324.570312 375 L 50.355469 375 C 46.191406 375 42.796875 371.605469 42.796875 367.441406 L 42.796875 7.558594 C 42.796875 3.394531 46.191406 0 50.355469 0 Z M 285.25 0.65625 L 285.25 43.097656 C 285.25 45.179688 286.949219 46.878906 289.03125 46.878906 L 331.472656 46.878906 C 331.105469 46.074219 330.585938 45.335938 329.914062 44.664062 L 287.464844 2.214844 C 286.792969 1.542969 286.054688 1.023438 285.25 0.65625 Z M 126.972656 281.300781 C 124.265625 281.300781 122.0625 283.507812 122.0625 286.210938 L 122.0625 338.058594 C 122.0625 340.761719 124.265625 342.96875 126.972656 342.96875 L 138.613281 342.96875 C 141.316406 342.96875 143.523438 340.761719 143.523438 338.058594 L 143.523438 286.210938 C 143.523438 283.507812 141.316406 281.300781 138.613281 281.300781 Z M 265.476562 208.785156 C 262.769531 208.785156 260.566406 210.988281 260.566406 213.695312 L 260.566406 338.058594 C 260.566406 340.761719 262.769531 342.96875 265.476562 342.96875 L 277.113281 342.96875 C 279.820312 342.96875 282.027344 340.761719 282.027344 338.058594 L 282.027344 213.695312 C 282.027344 210.988281 279.820312 208.785156 277.113281 208.785156 Z M 219.308594 232.957031 C 216.601562 232.957031 214.394531 235.160156 214.394531 237.867188 C 214.394531 271.261719 214.394531 304.660156 214.394531 338.058594 C 214.394531 340.761719 216.601562 342.96875 219.308594 342.96875 C 223.1875 342.96875 227.066406 342.96875 230.945312 342.96875 C 233.652344 342.96875 235.859375 340.761719 235.859375 338.058594 C 235.859375 304.660156 235.859375 271.265625 235.859375 237.867188 C 235.859375 235.160156 233.652344 232.957031 230.945312 232.957031 C 227.066406 232.957031 223.1875 232.957031 219.308594 232.957031 Z M 173.140625 257.128906 C 170.433594 257.128906 168.230469 259.335938 168.230469 262.039062 C 168.230469 287.378906 168.230469 312.71875 168.230469 338.058594 C 168.230469 340.761719 170.433594 342.96875 173.140625 342.96875 C 177.019531 342.96875 180.898438 342.96875 184.78125 342.96875 C 187.484375 342.96875 189.691406 340.761719 189.691406 338.058594 C 189.691406 312.71875 189.691406 287.378906 189.691406 262.039062 C 189.691406 259.335938 187.484375 257.128906 184.78125 257.128906 C 180.898438 257.128906 177.019531 257.128906 173.140625 257.128906 Z M 115.863281 205.613281 L 161.734375 205.613281 C 165.074219 205.613281 167.78125 202.90625 167.78125 199.566406 C 167.78125 196.226562 165.074219 193.515625 161.734375 193.515625 L 115.863281 193.515625 C 112.519531 193.515625 109.8125 196.226562 109.8125 199.566406 C 109.8125 202.90625 112.519531 205.613281 115.863281 205.613281 Z M 91.363281 234.640625 L 97.5625 234.640625 C 100.902344 234.640625 103.609375 231.933594 103.609375 228.59375 C 103.609375 225.253906 100.902344 222.542969 97.5625 222.542969 L 91.363281 222.542969 C 88.023438 222.542969 85.316406 225.253906 85.316406 228.59375 C 85.316406 231.933594 88.023438 234.640625 91.363281 234.640625 Z M 91.363281 205.613281 L 97.5625 205.613281 C 100.902344 205.613281 103.609375 202.90625 103.609375 199.566406 C 103.609375 196.226562 100.902344 193.515625 97.5625 193.515625 L 91.363281 193.515625 C 88.023438 193.515625 85.316406 196.226562 85.316406 199.566406 C 85.316406 202.90625 88.023438 205.613281 91.363281 205.613281 Z M 115.863281 234.640625 L 161.734375 234.640625 C 165.074219 234.640625 167.78125 231.933594 167.78125 228.59375 C 167.78125 225.253906 165.074219 222.542969 161.734375 222.542969 L 115.863281 222.542969 C 112.519531 222.542969 109.8125 225.253906 109.8125 228.59375 C 109.8125 231.933594 112.519531 234.640625 115.863281 234.640625 Z M 236.15625 150.210938 L 290.5 150.210938 C 293.84375 150.210938 296.550781 147.5 296.550781 144.160156 C 296.550781 140.820312 293.84375 138.113281 290.5 138.113281 L 236.15625 138.113281 C 232.816406 138.113281 230.105469 140.820312 230.105469 144.160156 C 230.105469 147.5 232.816406 150.210938 236.15625 150.210938 Z M 236.15625 121.183594 L 290.5 121.183594 C 293.84375 121.183594 296.550781 118.472656 296.550781 115.132812 C 296.550781 111.792969 293.84375 109.085938 290.5 109.085938 L 236.15625 109.085938 C 232.816406 109.085938 230.105469 111.792969 230.105469 115.132812 C 230.105469 118.472656 232.816406 121.183594 236.15625 121.183594 Z M 236.15625 92.15625 L 290.5 92.15625 C 293.84375 92.15625 296.550781 89.449219 296.550781 86.105469 C 296.550781 82.765625 293.84375 80.058594 290.5 80.058594 L 236.15625 80.058594 C 232.816406 80.058594 230.105469 82.765625 230.105469 86.105469 C 230.105469 89.449219 232.816406 92.15625 236.15625 92.15625 Z M 132.667969 47.65625 C 101.820312 50.695312 77.71875 76.710938 77.71875 108.355469 C 77.71875 142.042969 105.03125 169.355469 138.71875 169.355469 C 147.675781 169.355469 156.183594 167.421875 163.847656 163.953125 L 133.703125 111.738281 C 133.050781 110.773438 132.667969 109.609375 132.667969 108.355469 Z M 174.292969 157.90625 C 188.148438 147.941406 197.65625 132.3125 199.417969 114.40625 L 149.175781 114.40625 Z M 199.417969 102.308594 C 196.578125 73.449219 173.625 50.496094 144.765625 47.65625 L 144.765625 102.308594 Z M 199.417969 102.308594 " fill-opacity="1" fill-rule="evenodd"/></g></svg>