<svg xmlns="http://www.w3.org/2000/svg" xmlns:xlink="http://www.w3.org/1999/xlink" width="500" zoomAndPan="magnify" viewBox="0 0 375 374.999991" height="500" preserveAspectRatio="xMidYMid meet" version="1.0"><path fill="#ffffff" d="M 50.542969 0 L 271.089844 0 C 271.519531 0 271.871094 0.351562 271.871094 0.78125 L 271.871094 125.5625 C 271.871094 125.992188 271.519531 126.34375 271.089844 126.34375 L 262.074219 126.34375 C 261.640625 126.34375 261.292969 125.992188 261.292969 125.5625 L 261.292969 83.414062 C 261.292969 82.984375 260.941406 82.632812 260.511719 82.632812 L 246.753906 82.632812 C 246.320312 82.632812 245.972656 82.28125 245.972656 81.851562 L 245.972656 21.339844 C 245.972656 18.320312 243.523438 15.871094 240.503906 15.871094 C 237.480469 15.871094 235.035156 18.320312 235.035156 21.339844 L 235.035156 81.851562 C 235.035156 82.28125 234.683594 82.632812 234.253906 82.632812 L 220.191406 82.632812 C 219.757812 82.632812 219.410156 82.28125 219.410156 81.851562 L 219.410156 21.339844 C 219.410156 18.320312 216.960938 15.871094 213.941406 15.871094 C 210.917969 15.871094 208.472656 18.320312 208.472656 21.339844 L 208.472656 81.851562 C 208.472656 82.28125 208.121094 82.632812 207.691406 82.632812 L 193.628906 82.632812 C 193.195312 82.632812 192.847656 82.28125 192.847656 81.851562 L 192.847656 21.339844 C 192.847656 18.320312 190.398438 15.871094 187.378906 15.871094 C 184.355469 15.871094 181.910156 18.320312 181.910156 21.339844 L 181.910156 81.851562 C 181.910156 82.28125 181.558594 82.632812 181.128906 82.632812 L 167.0625 82.632812 C 166.632812 82.632812 166.28125 82.28125 166.28125 81.851562 L 166.28125 21.339844 C 166.28125 18.320312 163.835938 15.871094 160.8125 15.871094 C 157.792969 15.871094 155.34375 18.320312 155.34375 21.339844 L 155.34375 81.851562 C 155.34375 82.28125 154.996094 82.632812 154.5625 82.632812 L 140.5 82.632812 C 140.070312 82.632812 139.71875 82.28125 139.71875 81.851562 L 139.71875 21.339844 C 139.71875 18.320312 137.273438 15.871094 134.25 15.871094 C 131.230469 15.871094 128.78125 18.320312 128.78125 21.339844 L 128.78125 81.851562 C 128.78125 82.28125 128.433594 82.632812 128 82.632812 L 113.9375 82.632812 C 113.507812 82.632812 113.15625 82.28125 113.15625 81.851562 L 113.15625 21.339844 C 113.15625 18.320312 110.707031 15.871094 107.6875 15.871094 C 104.667969 15.871094 102.21875 18.320312 102.21875 21.339844 L 102.21875 81.851562 C 102.21875 82.28125 101.867188 82.632812 101.4375 82.632812 L 87.375 82.632812 C 86.945312 82.632812 86.59375 82.28125 86.59375 81.851562 L 86.59375 21.339844 C 86.59375 18.320312 84.144531 15.871094 81.125 15.871094 C 78.105469 15.871094 75.65625 18.320312 75.65625 21.339844 L 75.65625 81.851562 C 75.65625 82.28125 75.304688 82.632812 74.875 82.632812 L 50.542969 82.632812 C 50.109375 82.632812 49.761719 82.28125 49.761719 81.851562 L 49.761719 0.78125 C 49.761719 0.351562 50.109375 0 50.542969 0 Z M 29.023438 93.570312 C 28.59375 93.570312 28.242188 93.921875 28.242188 94.351562 L 28.242188 175.421875 C 28.242188 175.851562 28.59375 176.203125 29.023438 176.203125 L 53.363281 176.203125 C 53.792969 176.203125 54.144531 175.851562 54.144531 175.421875 L 54.144531 114.910156 C 54.144531 111.890625 56.59375 109.441406 59.613281 109.441406 C 62.632812 109.441406 65.082031 111.890625 65.082031 114.910156 L 65.082031 175.421875 C 65.082031 175.851562 65.433594 176.203125 65.863281 176.203125 L 79.925781 176.203125 C 80.355469 176.203125 80.707031 175.851562 80.707031 175.421875 L 80.707031 114.910156 C 80.707031 111.890625 83.15625 109.441406 86.175781 109.441406 C 89.195312 109.441406 91.644531 111.890625 91.644531 114.910156 L 91.644531 175.421875 C 91.644531 175.851562 91.996094 176.203125 92.425781 176.203125 L 106.488281 176.203125 C 106.917969 176.203125 107.269531 175.851562 107.269531 175.421875 L 107.269531 114.910156 C 107.269531 111.890625 109.71875 109.441406 112.738281 109.441406 C 115.757812 109.441406 118.207031 111.890625 118.207031 114.910156 L 118.207031 175.421875 C 118.207031 175.851562 118.558594 176.203125 118.988281 176.203125 L 133.050781 176.203125 C 133.480469 176.203125 133.832031 175.851562 133.832031 175.421875 L 133.832031 114.910156 C 133.832031 111.890625 136.28125 109.441406 139.300781 109.441406 C 142.320312 109.441406 144.769531 111.890625 144.769531 114.910156 L 144.769531 175.421875 C 144.769531 175.851562 145.121094 176.203125 145.550781 176.203125 L 159.613281 176.203125 C 160.042969 176.203125 160.394531 175.851562 160.394531 175.421875 L 160.394531 114.910156 C 160.394531 111.890625 162.84375 109.441406 165.863281 109.441406 C 168.882812 109.441406 171.332031 111.890625 171.332031 114.910156 L 171.332031 175.421875 C 171.332031 175.851562 171.683594 176.203125 172.113281 176.203125 L 186.175781 176.203125 C 186.605469 176.203125 186.957031 175.851562 186.957031 175.421875 L 186.957031 114.910156 C 186.957031 111.890625 189.40625 109.441406 192.425781 109.441406 C 195.445312 109.441406 197.894531 111.890625 197.894531 114.910156 L 197.894531 175.421875 C 197.894531 175.851562 198.246094 176.203125 198.675781 176.203125 L 212.738281 176.203125 C 213.171875 176.203125 213.519531 175.851562 213.519531 175.421875 L 213.519531 114.910156 C 213.519531 111.890625 215.96875 109.441406 218.988281 109.441406 C 222.011719 109.441406 224.457031 111.890625 224.457031 114.910156 L 224.457031 175.421875 C 224.457031 175.851562 224.808594 176.203125 225.238281 176.203125 L 238.996094 176.203125 C 239.429688 176.203125 239.777344 176.554688 239.777344 176.984375 L 239.777344 219.132812 C 239.777344 219.5625 240.128906 219.914062 240.558594 219.914062 L 249.578125 219.914062 C 250.007812 219.914062 250.359375 219.5625 250.359375 219.132812 L 250.359375 94.351562 C 250.359375 93.921875 250.007812 93.570312 249.578125 93.570312 Z M 262.074219 137.277344 L 308.289062 137.277344 C 312.460938 137.277344 316.050781 139.230469 318.320312 142.734375 L 343.226562 181.199219 C 344.535156 183.21875 345.144531 185.285156 345.144531 187.691406 L 345.144531 193.238281 C 345.144531 193.667969 344.792969 194.019531 344.363281 194.019531 L 335.214844 194.019531 C 332.195312 194.019531 329.746094 196.46875 329.746094 199.488281 C 329.746094 202.507812 332.195312 204.957031 335.214844 204.957031 L 344.363281 204.957031 C 344.792969 204.957031 345.144531 205.308594 345.144531 205.738281 L 345.144531 231.890625 C 345.144531 232.320312 344.792969 232.671875 344.363281 232.671875 L 328.210938 232.671875 C 327.949219 232.671875 327.730469 232.558594 327.578125 232.347656 C 317.144531 217.96875 298.023438 212.78125 281.828125 219.847656 C 281.722656 219.894531 281.628906 219.914062 281.515625 219.914062 L 262.070312 219.914062 C 261.640625 219.914062 261.289062 219.5625 261.289062 219.132812 L 261.289062 138.058594 C 261.292969 137.628906 261.640625 137.277344 262.074219 137.277344 Z M 347.507812 243.605469 L 334.199219 243.605469 C 333.679688 243.605469 333.308594 244.09375 333.445312 244.59375 C 335.207031 251.070312 335.207031 258 333.445312 264.480469 C 333.308594 264.980469 333.679688 265.464844 334.199219 265.464844 L 347.507812 265.464844 C 350.800781 265.464844 353.484375 262.78125 353.484375 259.492188 L 353.484375 249.582031 C 353.484375 246.289062 350.796875 243.605469 347.507812 243.605469 Z M 307.246094 229.691406 C 306.539062 229.398438 305.875 230.195312 306.289062 230.835938 L 322.382812 255.6875 C 322.800781 256.332031 323.796875 256.050781 323.820312 255.285156 C 324.128906 244.140625 317.542969 233.96875 307.246094 229.691406 Z M 281.878906 204.957031 L 291.808594 204.957031 C 294.832031 204.957031 297.277344 202.507812 297.277344 199.488281 C 297.277344 196.46875 294.832031 194.019531 291.808594 194.019531 L 281.878906 194.019531 C 278.859375 194.019531 276.410156 196.46875 276.410156 199.488281 C 276.410156 202.507812 278.859375 204.957031 281.878906 204.957031 Z M 274.066406 154.058594 L 274.066406 183.378906 C 274.066406 183.8125 274.417969 184.160156 274.847656 184.160156 L 331.570312 184.160156 C 332.191406 184.160156 332.5625 183.476562 332.226562 182.957031 L 313.238281 153.632812 C 313.089844 153.40625 312.855469 153.277344 312.582031 153.277344 L 274.847656 153.277344 C 274.417969 153.277344 274.066406 153.628906 274.066406 154.058594 Z M 240.554688 230.847656 C 240.125 230.847656 239.773438 231.199219 239.773438 231.628906 L 239.773438 325.457031 C 239.773438 325.890625 240.125 326.238281 240.554688 326.238281 L 244.148438 326.238281 C 244.40625 326.238281 244.628906 326.125 244.78125 325.917969 C 251.65625 316.441406 262.820312 310.277344 275.421875 310.277344 C 288.019531 310.277344 299.183594 316.441406 306.058594 325.917969 C 306.210938 326.125 306.433594 326.238281 306.691406 326.238281 L 322.84375 326.238281 C 323.277344 326.238281 323.625 325.890625 323.625 325.457031 L 323.625 299.308594 C 323.625 298.878906 323.277344 298.527344 322.84375 298.527344 L 313.695312 298.527344 C 310.675781 298.527344 308.226562 296.078125 308.226562 293.058594 C 308.226562 290.039062 310.675781 287.589844 313.695312 287.589844 L 322.84375 287.589844 C 323.277344 287.589844 323.625 287.238281 323.625 286.808594 L 323.625 281.261719 C 323.625 278.855469 323.015625 276.789062 321.707031 274.765625 L 296.800781 236.304688 C 294.53125 232.800781 290.945312 230.847656 286.769531 230.847656 Z M 325.992188 337.175781 L 312.679688 337.175781 C 312.164062 337.175781 311.792969 337.664062 311.925781 338.164062 C 313.6875 344.640625 313.6875 351.570312 311.925781 358.050781 C 311.792969 358.550781 312.164062 359.035156 312.679688 359.035156 L 325.992188 359.035156 C 329.28125 359.035156 331.96875 356.351562 331.96875 353.0625 L 331.96875 343.152344 C 331.964844 339.859375 329.28125 337.175781 325.992188 337.175781 Z M 48.792969 321.214844 C 63.648438 321.214844 75.6875 333.253906 75.6875 348.105469 C 75.6875 362.957031 63.648438 375 48.792969 375 C 33.941406 375 21.902344 362.957031 21.902344 348.105469 C 21.902344 333.253906 33.941406 321.214844 48.792969 321.214844 Z M 48.792969 341.074219 C 44.910156 341.074219 41.761719 344.222656 41.761719 348.105469 C 41.761719 351.988281 44.910156 355.136719 48.792969 355.136719 C 52.675781 355.136719 55.824219 351.988281 55.824219 348.105469 C 55.824219 344.222656 52.675781 341.074219 48.792969 341.074219 Z M 118.207031 321.214844 C 133.058594 321.214844 145.097656 333.253906 145.097656 348.105469 C 145.097656 362.957031 133.058594 375 118.207031 375 C 103.351562 375 91.3125 362.957031 91.3125 348.105469 C 91.3125 333.253906 103.351562 321.214844 118.207031 321.214844 Z M 118.207031 341.074219 C 114.324219 341.074219 111.175781 344.222656 111.175781 348.105469 C 111.175781 351.988281 114.324219 355.136719 118.207031 355.136719 C 122.089844 355.136719 125.238281 351.988281 125.238281 348.105469 C 125.238281 344.222656 122.089844 341.074219 118.207031 341.074219 Z M 275.421875 321.214844 C 290.273438 321.214844 302.3125 333.253906 302.3125 348.105469 C 302.3125 362.957031 290.273438 375 275.421875 375 C 260.566406 375 248.527344 362.957031 248.527344 348.105469 C 248.527344 333.253906 260.566406 321.214844 275.421875 321.214844 Z M 275.421875 341.074219 C 271.535156 341.074219 268.390625 344.222656 268.390625 348.105469 C 268.390625 351.988281 271.535156 355.136719 275.421875 355.136719 C 279.304688 355.136719 282.453125 351.988281 282.453125 348.105469 C 282.453125 344.222656 279.304688 341.074219 275.421875 341.074219 Z M 238.160156 337.175781 L 155.464844 337.175781 C 154.949219 337.175781 154.578125 337.664062 154.710938 338.164062 C 156.472656 344.640625 156.472656 351.570312 154.710938 358.050781 C 154.578125 358.550781 154.949219 359.035156 155.464844 359.035156 L 238.160156 359.035156 C 238.675781 359.035156 239.050781 358.550781 238.914062 358.050781 C 237.152344 351.570312 237.152344 344.640625 238.914062 338.164062 C 239.050781 337.664062 238.675781 337.175781 238.160156 337.175781 Z M 11.535156 337.175781 L 5.976562 337.175781 C 2.683594 337.175781 0 339.863281 0 343.152344 L 0 353.0625 C 0 356.351562 2.683594 359.035156 5.976562 359.035156 L 11.535156 359.035156 C 12.050781 359.035156 12.421875 358.550781 12.289062 358.050781 C 10.527344 351.574219 10.527344 344.640625 12.289062 338.164062 C 12.421875 337.664062 12.050781 337.175781 11.535156 337.175781 Z M 7.507812 187.140625 L 228.054688 187.140625 C 228.488281 187.140625 228.835938 187.492188 228.835938 187.921875 L 228.835938 325.457031 C 228.835938 325.890625 228.488281 326.238281 228.054688 326.238281 L 149.476562 326.238281 C 149.21875 326.238281 148.996094 326.125 148.84375 325.917969 C 141.96875 316.441406 130.804688 310.277344 118.207031 310.277344 C 103.269531 310.277344 90.351562 318.941406 84.203125 331.515625 C 83.917969 332.097656 83.082031 332.097656 82.796875 331.515625 C 76.652344 318.941406 63.734375 310.277344 48.792969 310.277344 C 36.195312 310.277344 25.03125 316.441406 18.15625 325.917969 C 18.003906 326.125 17.78125 326.238281 17.523438 326.238281 L 7.507812 326.238281 C 7.078125 326.238281 6.726562 325.890625 6.726562 325.457031 L 6.726562 187.921875 C 6.726562 187.492188 7.078125 187.140625 7.507812 187.140625 Z M 32.625 208.480469 C 32.625 205.460938 35.074219 203.011719 38.09375 203.011719 C 41.117188 203.011719 43.5625 205.460938 43.5625 208.480469 L 43.5625 303.804688 C 43.5625 306.828125 41.117188 309.273438 38.09375 309.273438 C 35.074219 309.273438 32.625 306.828125 32.625 303.804688 Z M 192 208.480469 C 192 205.460938 194.449219 203.011719 197.46875 203.011719 C 200.488281 203.011719 202.9375 205.460938 202.9375 208.480469 L 202.9375 303.804688 C 202.9375 306.828125 200.488281 309.273438 197.46875 309.273438 C 194.449219 309.273438 192 306.828125 192 303.804688 Z M 165.4375 208.480469 C 165.4375 205.460938 167.886719 203.011719 170.90625 203.011719 C 173.925781 203.011719 176.375 205.460938 176.375 208.480469 L 176.375 303.804688 C 176.375 306.828125 173.925781 309.273438 170.90625 309.273438 C 167.886719 309.273438 165.4375 306.828125 165.4375 303.804688 Z M 138.875 208.480469 C 138.875 205.460938 141.324219 203.011719 144.34375 203.011719 C 147.363281 203.011719 149.8125 205.460938 149.8125 208.480469 L 149.8125 303.804688 C 149.8125 306.828125 147.363281 309.273438 144.34375 309.273438 C 141.324219 309.273438 138.875 306.828125 138.875 303.804688 Z M 112.3125 208.480469 C 112.3125 205.460938 114.761719 203.011719 117.78125 203.011719 C 120.800781 203.011719 123.25 205.460938 123.25 208.480469 L 123.25 303.804688 C 123.25 306.828125 120.800781 309.273438 117.78125 309.273438 C 114.761719 309.273438 112.3125 306.828125 112.3125 303.804688 Z M 85.75 208.480469 C 85.75 205.460938 88.199219 203.011719 91.21875 203.011719 C 94.238281 203.011719 96.6875 205.460938 96.6875 208.480469 L 96.6875 303.804688 C 96.6875 306.828125 94.238281 309.273438 91.21875 309.273438 C 88.199219 309.273438 85.75 306.828125 85.75 303.804688 Z M 59.1875 208.480469 C 59.1875 205.460938 61.636719 203.011719 64.65625 203.011719 C 67.679688 203.011719 70.125 205.460938 70.125 208.480469 L 70.125 303.804688 C 70.125 306.828125 67.679688 309.273438 64.65625 309.273438 C 61.636719 309.273438 59.1875 306.828125 59.1875 303.804688 Z M 260.363281 298.527344 C 257.34375 298.527344 254.894531 296.078125 254.894531 293.058594 C 254.894531 290.039062 257.34375 287.589844 260.363281 287.589844 L 270.292969 287.589844 C 273.3125 287.589844 275.761719 290.039062 275.761719 293.058594 C 275.761719 296.078125 273.3125 298.527344 270.292969 298.527344 Z M 252.550781 247.628906 C 252.550781 247.199219 252.902344 246.847656 253.332031 246.847656 L 291.066406 246.847656 C 291.339844 246.847656 291.574219 246.972656 291.722656 247.203125 L 310.710938 276.527344 C 311.046875 277.046875 310.675781 277.730469 310.054688 277.730469 L 253.332031 277.730469 C 252.902344 277.730469 252.550781 277.378906 252.550781 276.949219 Z M 283.589844 43.707031 C 283.160156 43.707031 282.808594 44.058594 282.808594 44.488281 L 282.808594 125.5625 C 282.808594 125.992188 283.160156 126.34375 283.589844 126.34375 L 303.03125 126.34375 C 303.144531 126.34375 303.238281 126.320312 303.34375 126.277344 C 319.539062 119.207031 338.660156 124.394531 349.09375 138.777344 C 349.246094 138.984375 349.46875 139.097656 349.726562 139.097656 L 365.878906 139.097656 C 366.308594 139.097656 366.660156 138.75 366.660156 138.316406 L 366.660156 112.167969 C 366.660156 111.738281 366.308594 111.386719 365.878906 111.386719 L 356.730469 111.386719 C 353.710938 111.386719 351.261719 108.9375 351.261719 105.917969 C 351.261719 102.898438 353.710938 100.449219 356.730469 100.449219 L 365.878906 100.449219 C 366.308594 100.449219 366.660156 100.097656 366.660156 99.667969 L 366.660156 94.121094 C 366.660156 91.714844 366.050781 89.648438 364.742188 87.625 L 339.835938 49.164062 C 337.566406 45.660156 333.980469 43.707031 329.804688 43.707031 Z M 369.023438 150.035156 L 355.714844 150.035156 C 355.195312 150.035156 354.824219 150.523438 354.960938 151.023438 C 356.722656 157.5 356.722656 164.429688 354.960938 170.910156 C 354.824219 171.410156 355.195312 171.894531 355.714844 171.894531 L 369.023438 171.894531 C 372.316406 171.894531 375 169.210938 375 165.921875 L 375 156.011719 C 375 152.71875 372.3125 150.035156 369.023438 150.035156 Z M 328.761719 136.121094 C 328.054688 135.828125 327.390625 136.625 327.808594 137.265625 L 343.898438 162.117188 C 344.316406 162.761719 345.316406 162.480469 345.335938 161.714844 C 345.644531 150.570312 339.0625 140.398438 328.761719 136.121094 Z M 303.398438 111.386719 C 300.375 111.386719 297.929688 108.9375 297.929688 105.917969 C 297.929688 102.898438 300.375 100.449219 303.398438 100.449219 L 313.328125 100.449219 C 316.347656 100.449219 318.796875 102.898438 318.796875 105.917969 C 318.796875 108.9375 316.347656 111.386719 313.328125 111.386719 Z M 295.585938 60.488281 C 295.585938 60.058594 295.933594 59.707031 296.367188 59.707031 L 334.101562 59.707031 C 334.375 59.707031 334.609375 59.832031 334.757812 60.0625 L 353.742188 89.386719 C 354.082031 89.90625 353.710938 90.589844 353.089844 90.589844 L 296.367188 90.589844 C 295.933594 90.589844 295.585938 90.238281 295.585938 89.808594 Z M 295.585938 60.488281 " fill-opacity="1" fill-rule="evenodd"/></svg>