<svg xmlns="http://www.w3.org/2000/svg" xmlns:xlink="http://www.w3.org/1999/xlink" version="1.1" x="0px" y="0px" viewBox="0 0 60 75" style="enable-background:new 0 0 60 60;" xml:space="preserve"><path d="M49.99,5H10.01C7.25,5,5,7.25,5,10.01v39.97C5,52.75,7.25,55,10.01,55h39.97c2.76,0,5.01-2.25,5.01-5.01V10.01  C55,7.25,52.75,5,49.99,5z M53,49.99c0,1.66-1.35,3.01-3.01,3.01H10.01C8.35,53,7,51.65,7,49.99V10.01C7,8.35,8.35,7,10.01,7h39.97  C51.65,7,53,8.35,53,10.01V49.99z"/><path d="M36.68,24.04c0.36,0,0.69-0.19,0.87-0.5c0.18-0.31,0.18-0.69,0-1l-6.68-11.6c-0.36-0.62-1.38-0.62-1.73,0l-6.68,11.6  c-0.18,0.31-0.18,0.69,0,1c0.18,0.31,0.51,0.5,0.87,0.5h2.6v11.92h-2.6c-0.36,0-0.69,0.19-0.87,0.5c-0.18,0.31-0.18,0.69,0,1  l6.68,11.6c0.18,0.31,0.51,0.5,0.87,0.5s0.69-0.19,0.87-0.5l6.68-11.6c0.18-0.31,0.18-0.69,0-1c-0.18-0.31-0.51-0.5-0.87-0.5h-2.6  V24.04H36.68z M33.08,37.96h1.87L30,46.56l-4.95-8.6h1.87c0.55,0,1-0.45,1-1V23.04c0-0.55-0.45-1-1-1h-1.87l4.95-8.6l4.95,8.6h-1.87  c-0.55,0-1,0.45-1,1v13.92C32.08,37.51,32.53,37.96,33.08,37.96z"/><text x="0" y="75" fill="#000000" font-size="5px" font-weight="bold" font-family="'Helvetica Neue', Helvetica, Arial-Unicode, Arial, Sans-serif">Created by Vectorstall</text><text x="0" y="80" fill="#000000" font-size="5px" font-weight="bold" font-family="'Helvetica Neue', Helvetica, Arial-Unicode, Arial, Sans-serif">from the Noun Project</text></svg>