<svg width="1250" height="450" xmlns="http://www.w3.org/2000/svg" xmlns:xlink="http://www.w3.org/1999/xlink" overflow="hidden"><g><path d="M579.476 295.206C561.209 295.206 546.401 310.009 546.401 328.268 546.401 346.528 561.209 361.331 579.476 361.331 597.742 361.331 612.551 346.528 612.551 328.268 612.551 310.009 597.742 295.206 579.476 295.206ZM483.175 295.206C464.908 295.206 450.1 310.009 450.1 328.268 450.1 346.528 464.908 361.331 483.175 361.331 501.442 361.331 516.25 346.528 516.25 328.268 516.25 310.009 501.442 295.206 483.175 295.206ZM883.338 285.767C865.071 285.767 850.263 300.57 850.263 318.829 850.263 337.089 865.071 351.892 883.338 351.892 901.605 351.892 916.413 337.089 916.413 318.829 916.413 300.57 901.605 285.767 883.338 285.767ZM564.628 283.649 563.687 283.903 563.444 284.016ZM576.265 281.36 571.569 281.775 571.22 281.869ZM579.933 281.037 579.689 281.058 588.884 281.985 589.103 282.029 595.662 284.064 599.667 285.725 605.716 289.007 606.45 289.562 612.886 294.871C615.024 297.007 616.958 299.348 618.656 301.861L622.032 308.078 620.343 303.777C618.271 300.369 615.78 297.243 612.941 294.472L606.45 289.562 605.894 289.103 605.716 289.007 603.452 287.294 599.667 285.725 597.867 284.748 595.662 284.064 592.306 282.673 589.103 282.029 588.998 281.996 588.884 281.985 586.246 281.455C584.181 281.179 582.074 281.037 579.933 281.037ZM801.802 91.097C793.966 91.097 787.613 97.447 787.613 105.28L787.613 162.011C787.613 169.845 793.966 176.195 801.802 176.195L920.643 176.195C928.479 176.195 934.832 169.845 934.832 162.011L934.832 105.28C934.832 97.447 928.479 91.097 920.643 91.097ZM397.5 79.5001 691.042 79.5001 723.941 112.387 723.941 260.82 730.902 260.82 730.902 110.672 731.077 110.672 731.077 93.6832C731.077 87.8083 734.651 82.7676 739.743 80.6145L745.266 79.5001 764.266 79.5001 933.045 79.5001 938.567 80.6145C943.66 82.7676 947.233 87.8083 947.233 93.6832L947.233 260.82 954.828 260.82C960.17 260.82 964.5 265.148 964.5 270.488L964.5 309.161C964.5 314.501 960.17 318.829 954.828 318.829L947.233 318.829 930.588 318.829C930.588 344.915 909.434 366.061 883.338 366.061 857.243 366.061 836.088 344.915 836.088 318.829 836.088 296.005 852.285 276.962 873.816 272.557L883.027 271.629 882.717 271.598C856.621 271.598 835.467 292.744 835.467 318.829L730.902 318.829 626.231 318.829 626.223 318.75 624.037 313.184 625.766 318.75C626.395 321.824 626.726 325.008 626.726 328.268 626.726 354.354 605.571 375.5 579.476 375.5 553.38 375.5 532.226 354.354 532.226 328.268L533.177 318.829 529.954 318.829 527.977 312.462 527.026 310.896 529.465 318.75C530.095 321.824 530.425 325.008 530.425 328.268 530.425 354.354 509.271 375.5 483.175 375.5 457.08 375.5 435.925 354.354 435.925 328.268L436.877 318.829 407.172 318.829C401.83 318.829 397.5 314.501 397.5 309.161L397.5 276.815 397.5 270.488Z" stroke="#000000" stroke-width="1.33333" stroke-miterlimit="8" fill-rule="evenodd"/></g></svg>
