<svg width="1250" height="450" xmlns="http://www.w3.org/2000/svg" xmlns:xlink="http://www.w3.org/1999/xlink" overflow="hidden"><g><path d="M1104.08 341.083C1085.81 341.083 1071 355.908 1071 374.196 1071 392.484 1085.81 407.309 1104.08 407.309 1122.35 407.309 1137.16 392.484 1137.16 374.196 1137.16 355.908 1122.35 341.083 1104.08 341.083ZM828.009 341.083C809.738 341.083 794.927 355.908 794.927 374.196 794.927 392.484 809.738 407.309 828.009 407.309 846.28 407.309 861.091 392.484 861.091 374.196 861.091 355.908 846.28 341.083 828.009 341.083ZM491.43 341.083C473.16 341.083 458.348 355.908 458.348 374.196 458.348 392.484 473.16 407.309 491.43 407.309 509.701 407.309 524.513 392.484 524.513 374.196 524.513 355.908 509.701 341.083 491.43 341.083ZM388.643 341.083C370.373 341.083 355.561 355.908 355.561 374.196 355.561 392.484 370.373 407.309 388.643 407.309 406.914 407.309 421.726 392.484 421.726 374.196 421.726 355.908 406.914 341.083 388.643 341.083ZM1022.77 146.115C1014.93 146.115 1008.57 152.475 1008.57 160.32L1008.57 217.138C1008.57 224.983 1014.93 231.343 1022.77 231.343L1141.63 231.343C1149.47 231.343 1155.83 224.983 1155.83 217.138L1155.83 160.32C1155.83 152.475 1149.47 146.115 1141.63 146.115ZM307.5 134.5 852.942 134.5 892.855 174.45 892.855 316.097 951.852 316.097 951.852 165.72 952.027 165.72 952.027 148.705C952.027 142.821 955.601 137.773 960.694 135.616L966.218 134.5 985.222 134.5 1154.04 134.5 1159.56 135.616C1164.66 137.773 1168.23 142.821 1168.23 148.705L1168.23 316.097 1175.83 316.097C1181.17 316.097 1185.5 320.433 1185.5 325.781L1185.5 364.513C1185.5 369.861 1181.17 374.196 1175.83 374.196L1168.23 374.196 1151.34 374.196C1151.34 400.321 1130.18 421.5 1104.08 421.5 1077.98 421.5 1056.82 400.321 1056.82 374.196 1056.82 351.336 1073.02 332.264 1094.56 327.853L1103.89 326.911 1103.7 326.892C1077.6 326.892 1056.44 348.071 1056.44 374.196L951.852 374.196 892.855 374.196 875.269 374.196C875.269 400.321 854.11 421.5 828.009 421.5 801.908 421.5 780.749 400.321 780.749 374.196 780.749 351.336 796.949 332.264 818.485 327.853L827.686 326.925 827.363 326.892C801.262 326.892 780.103 348.071 780.103 374.196L750.86 374.196 659.812 374.196 628.051 374.196 539.304 374.196C539.304 348.071 518.145 326.892 492.044 326.892L491.737 326.923 500.955 327.853C522.491 332.264 538.691 351.336 538.691 374.196 538.691 400.321 517.532 421.5 491.43 421.5 465.329 421.5 444.17 400.321 444.17 374.196L435.904 374.196C435.904 400.321 414.745 421.5 388.643 421.5 362.542 421.5 341.383 400.321 341.383 374.196L344.164 358.424 344.448 357.509 346.898 352.251 348.207 349.837 351.299 345.373 353.253 343.001 356.865 339.299 359.48 337.139 363.458 334.236 366.876 332.379 370.942 330.358 376.478 328.638 379.119 327.853 388.586 326.898 388.529 326.892C385.267 326.892 382.081 327.223 379.005 327.853L376.478 328.638 371.314 330.173 370.942 330.358 370.134 330.609 366.876 332.379 364.137 333.74 363.458 334.236 362.106 334.971 359.48 337.139 357.715 338.427 356.865 339.299 355.111 340.747 353.253 343.001 352.175 344.106 351.299 345.373 349.34 347.748 348.207 349.837 347.645 350.65 346.898 352.251 344.983 355.783 344.448 357.509 344.251 357.931 344.164 358.424 342.229 364.663C341.6 367.742 341.269 370.93 341.269 374.196L307.5 374.196Z" stroke="#000000" stroke-width="1.33333" stroke-miterlimit="8" fill-rule="evenodd"/></g></svg>