<svg width="1250" height="450" xmlns="http://www.w3.org/2000/svg" xmlns:xlink="http://www.w3.org/1999/xlink" overflow="hidden"><g><path d="M1104.14 341.083C1085.87 341.083 1071.07 355.908 1071.07 374.196 1071.07 392.484 1085.87 407.309 1104.14 407.309 1122.41 407.309 1137.21 392.484 1137.21 374.196 1137.21 355.908 1122.41 341.083 1104.14 341.083ZM808.435 341.083C790.169 341.083 775.362 355.908 775.362 374.196 775.362 392.484 790.169 407.309 808.435 407.309 826.701 407.309 841.509 392.484 841.509 374.196 841.509 355.908 826.701 341.083 808.435 341.083ZM705.467 341.083C687.201 341.083 672.394 355.908 672.394 374.196 672.394 392.484 687.201 407.309 705.467 407.309 723.733 407.309 738.541 392.484 738.541 374.196 738.541 355.908 723.733 341.083 705.467 341.083ZM472.914 341.083C454.648 341.083 439.841 355.908 439.841 374.196 439.841 392.484 454.648 407.309 472.914 407.309 491.181 407.309 505.988 392.484 505.988 374.196 505.988 355.908 491.181 341.083 472.914 341.083ZM369.946 341.083C351.68 341.083 336.873 355.908 336.873 374.196 336.873 392.484 351.68 407.309 369.946 407.309 388.212 407.309 403.02 392.484 403.02 374.196 403.02 355.908 388.212 341.083 369.946 341.083ZM1022.81 146.115C1014.97 146.115 1008.62 152.475 1008.62 160.32L1008.62 217.138C1008.62 224.983 1014.97 231.343 1022.81 231.343L1141.64 231.343C1149.48 231.343 1155.83 224.983 1155.83 217.138L1155.83 160.32C1155.83 152.475 1149.48 146.115 1141.64 146.115ZM289.5 134.5 851.193 134.5 891.096 174.45 891.096 316.097 951.912 316.097 951.912 165.72 952.087 165.72 952.087 148.705C952.087 142.821 955.66 137.773 960.753 135.616L966.275 134.5 985.274 134.5 1154.05 134.5 1159.57 135.616C1164.66 137.773 1168.23 142.821 1168.23 148.705L1168.23 316.097 1175.83 316.097C1181.17 316.097 1185.5 320.433 1185.5 325.781L1185.5 364.513C1185.5 369.861 1181.17 374.196 1175.83 374.196L1168.23 374.196 1151.39 374.196C1151.39 400.321 1130.23 421.5 1104.14 421.5 1078.05 421.5 1056.89 400.321 1056.89 374.196 1056.89 351.336 1073.09 332.264 1094.62 327.853L1103.93 326.913 1103.72 326.892C1077.63 326.892 1056.47 348.071 1056.47 374.196L951.912 374.196 891.096 374.196 855.683 374.196C855.683 400.321 834.53 421.5 808.435 421.5 782.341 421.5 761.187 400.321 761.187 374.196 761.187 351.336 777.383 332.264 798.913 327.853L808.009 326.935 807.583 326.892C781.488 326.892 760.334 348.071 760.334 374.196L752.715 374.196C752.715 400.321 731.562 421.5 705.467 421.5 679.373 421.5 658.219 400.321 658.219 374.196 658.219 351.336 674.415 332.264 695.945 327.853L704.781 326.961 704.095 326.892C678 326.892 656.847 348.071 656.847 374.196L628.196 374.196 520.642 374.196C520.642 348.071 499.488 326.892 473.394 326.892L473.154 326.916 482.437 327.853C503.967 332.264 520.162 351.336 520.162 374.196 520.162 400.321 499.009 421.5 472.914 421.5 446.82 421.5 425.666 400.321 425.666 374.196L417.194 374.196C417.194 400.321 396.041 421.5 369.946 421.5 343.852 421.5 322.698 400.321 322.698 374.196L325.381 358.976 325.983 357.035 327.76 353.221 329.861 349.345 332.224 345.932 335.041 342.513 337.87 339.613 341.425 336.676 344.552 334.393 349.051 331.948 352.127 330.419 359.491 328.13 360.424 327.853 369.926 326.894 369.906 326.892C366.644 326.892 363.46 327.223 360.384 327.853L359.491 328.13 352.622 330.173 352.127 330.419 351.515 330.609 349.051 331.948 345.446 333.74 344.552 334.393 343.489 334.971 341.425 336.676 339.026 338.427 337.87 339.613 336.497 340.747 335.041 342.513 333.487 344.106 332.224 345.932 330.727 347.748 329.861 349.345 328.958 350.65 327.76 353.221 326.371 355.783 325.983 357.035 325.565 357.931 325.381 358.976 323.618 364.663C322.988 367.742 322.658 370.93 322.658 374.196L289.5 374.196Z" stroke="#000000" stroke-width="1.33333" stroke-miterlimit="8" fill-rule="evenodd"/></g></svg>