<svg width="1250" height="450" xmlns="http://www.w3.org/2000/svg" xmlns:xlink="http://www.w3.org/1999/xlink" overflow="hidden"><g><path d="M1104.76 341.083C1086.49 341.083 1071.67 355.908 1071.67 374.196 1071.67 392.484 1086.49 407.309 1104.76 407.309 1123.04 407.309 1137.86 392.484 1137.86 374.196 1137.86 355.908 1123.04 341.083 1104.76 341.083ZM807.73 341.083C789.452 341.083 774.635 355.908 774.635 374.196 774.635 392.484 789.452 407.309 807.73 407.309 826.007 407.309 840.824 392.484 840.824 374.196 840.824 355.908 826.007 341.083 807.73 341.083ZM702.896 341.083C684.618 341.083 669.801 355.908 669.801 374.196 669.801 392.484 684.618 407.309 702.896 407.309 721.173 407.309 735.99 392.484 735.99 374.196 735.99 355.908 721.173 341.083 702.896 341.083ZM472.934 341.083C454.656 341.083 439.839 355.908 439.839 374.196 439.839 392.484 454.656 407.309 472.934 407.309 491.211 407.309 506.028 392.484 506.028 374.196 506.028 355.908 491.211 341.083 472.934 341.083ZM369.017 341.083C350.74 341.083 335.923 355.908 335.923 374.196 335.923 392.484 350.74 407.309 369.017 407.309 387.295 407.309 402.112 392.484 402.112 374.196 402.112 355.908 387.295 341.083 369.017 341.083ZM265.251 341.083C246.973 341.083 232.156 355.908 232.156 374.196 232.156 392.484 246.973 407.309 265.251 407.309 283.528 407.309 298.345 392.484 298.345 374.196 298.345 355.908 283.528 341.083 265.251 341.083ZM1022.71 146.115C1014.87 146.115 1008.51 152.475 1008.51 160.32L1008.51 217.138C1008.51 224.983 1014.87 231.343 1022.71 231.343L1141.62 231.343C1149.46 231.343 1155.81 224.983 1155.81 217.138L1155.81 160.32C1155.81 152.475 1149.46 146.115 1141.62 146.115ZM183.5 134.5 850.982 134.5 890.91 174.45 890.91 316.097 951.765 316.097 951.765 165.72 951.94 165.72 951.94 148.705C951.94 142.821 955.515 137.773 960.611 135.616L966.137 134.5 985.148 134.5 1154.03 134.5 1159.55 135.616C1164.65 137.773 1168.22 142.821 1168.22 148.705L1168.22 316.097 1175.82 316.097C1181.17 316.097 1185.5 320.433 1185.5 325.781L1185.5 364.513C1185.5 369.861 1181.17 374.196 1175.82 374.196L1168.22 374.196 1152.04 374.196C1152.04 400.321 1130.88 421.5 1104.76 421.5 1078.65 421.5 1057.49 400.321 1057.49 374.196 1057.49 351.336 1073.69 332.264 1095.24 327.853L1104.22 326.947 1103.67 326.892C1077.56 326.892 1056.39 348.071 1056.39 374.196L951.765 374.196 890.91 374.196 855.008 374.196C855.008 400.321 833.841 421.5 807.73 421.5 781.619 421.5 760.452 400.321 760.452 374.196 760.452 351.336 776.658 332.264 798.202 327.853L807.537 326.912 807.344 326.892C781.234 326.892 760.067 348.071 760.067 374.196L751.069 374.196C751.069 348.071 729.902 326.892 703.791 326.892L703.343 326.937 712.424 327.853C733.967 332.264 750.173 351.336 750.173 374.196 750.173 400.321 729.006 421.5 702.896 421.5 676.785 421.5 655.618 400.321 655.618 374.196L627.845 374.196 520.223 374.196C520.223 348.071 499.056 326.892 472.945 326.892L472.94 326.893 482.462 327.853C504.005 332.264 520.211 351.336 520.211 374.196 520.211 400.321 499.044 421.5 472.934 421.5 446.823 421.5 425.656 400.321 425.656 374.196L416.67 374.196C416.67 348.071 395.503 326.892 369.392 326.892L369.205 326.911 378.546 327.853C400.089 332.264 416.295 351.336 416.295 374.196 416.295 400.321 395.128 421.5 369.017 421.5 342.907 421.5 321.74 400.321 321.74 374.196L313.117 374.196C313.117 348.071 291.95 326.892 265.839 326.892L265.545 326.922 274.779 327.853C296.322 332.264 312.528 351.336 312.528 374.196 312.528 400.321 291.361 421.5 265.251 421.5 239.14 421.5 217.973 400.321 217.973 374.196L183.5 374.196Z" stroke="#000000" stroke-width="1.33333" stroke-miterlimit="8" fill-rule="evenodd"/></g></svg>