<svg width="1250" height="450" xmlns="http://www.w3.org/2000/svg" xmlns:xlink="http://www.w3.org/1999/xlink" overflow="hidden"><g><path d="M1161.64 401.346 1161.05 402.144 1159.26 405.76ZM1165.7 396.201 1165.07 396.772 1163.37 399.048ZM1189.31 396.094C1176.56 396.094 1166.22 406.492 1166.22 419.32 1166.22 432.147 1176.56 442.546 1189.31 442.546 1202.06 442.546 1212.4 432.147 1212.4 419.32 1212.4 406.492 1202.06 396.094 1189.31 396.094ZM981.255 396.094C968.502 396.094 958.163 406.492 958.163 419.32 958.163 432.147 968.502 442.546 981.255 442.546 994.009 442.546 1004.35 432.147 1004.35 419.32 1004.35 406.492 994.009 396.094 981.255 396.094ZM909.048 396.094C896.294 396.094 885.956 406.492 885.956 419.32 885.956 432.147 896.294 442.546 909.048 442.546 921.801 442.546 932.14 432.147 932.14 419.32 932.14 406.492 921.801 396.094 909.048 396.094ZM603.718 396.094C590.964 396.094 580.625 406.492 580.625 419.32 580.625 432.147 590.964 442.546 603.718 442.546 616.471 442.546 626.81 432.147 626.81 419.32 626.81 406.492 616.471 396.094 603.718 396.094ZM475.491 396.094C462.737 396.094 452.399 406.492 452.399 419.32 452.399 432.147 462.737 442.546 475.491 442.546 488.245 442.546 498.583 432.147 498.583 419.32 498.583 406.492 488.245 396.094 475.491 396.094ZM403.283 396.094C390.53 396.094 380.191 406.492 380.191 419.32 380.191 432.147 390.53 442.546 403.283 442.546 416.037 442.546 426.376 432.147 426.376 419.32 426.376 406.492 416.037 396.094 403.283 396.094ZM97.9535 396.094C85.2 396.094 74.8613 406.492 74.8613 419.32 74.8613 432.147 85.2 442.546 97.9535 442.546 110.707 442.546 121.046 432.147 121.046 419.32 121.046 406.492 110.707 396.094 97.9535 396.094ZM111.002 388.861 116.398 391.806C118.153 392.999 119.788 394.357 121.28 395.858L121.28 395.858 116.398 391.806ZM106.949 387.547 110.794 388.747 110.794 388.747ZM101.749 386.525 104.602 386.814 104.602 386.814ZM97.9535 386.14C95.676 386.14 93.4526 386.372 91.3051 386.814L91.3037 386.814 85.8574 388.441 85.4648 388.637 85.1127 388.747 83.6945 389.521 80.8475 390.943 80.4403 391.298 79.5091 391.806C77.7541 392.999 76.1193 394.357 74.6269 395.858L73.1847 397.616 72.4977 398.214 72.0498 399 70.5987 400.769C69.413 402.534 68.3917 404.42 67.5571 406.405L67.4111 407.132 66.9665 407.911 64.9648 419.319 64.9647 419.32 65.2049 420.517 64.9647 419.32 64.9648 419.319 67.4111 407.132 72.0498 399 73.1847 397.616 80.4403 391.298 83.6945 389.521 85.4648 388.637 91.3037 386.814 91.3051 386.814 97.9535 386.14ZM1188.4 386.14C1184.98 386.14 1181.69 386.711 1178.59 387.772L1177.15 388.537 1176.47 388.747C1174.5 389.587 1172.62 390.614 1170.87 391.806L1170.7 391.948 1169.96 392.339 1167.11 394.927 1170.7 391.948 1177.15 388.537 1182.66 386.814 1188.84 386.188ZM1131.91 247.413C1126.44 247.413 1122 252.294 1122 258.314L1122 301.915C1122 307.936 1126.44 312.816 1131.91 312.816L1214.88 312.816C1220.35 312.816 1224.79 307.936 1224.79 301.915L1224.79 258.314C1224.79 252.294 1220.35 247.413 1214.88 247.413ZM40.5001 238.5 503.565 238.5 534.107 269.157 534.107 378.16 546.339 378.16 546.339 238.5 1009.4 238.5 1039.95 269.157 1039.95 377.856 1082.41 377.856 1082.41 262.458 1082.53 262.458 1082.53 249.401C1082.53 244.886 1085.02 241.012 1088.58 239.357L1092.44 238.5 1105.7 238.5 1223.54 238.5 1227.39 239.357C1230.95 241.012 1233.44 244.886 1233.44 249.401L1233.44 377.856 1238.75 377.856C1242.48 377.856 1245.5 381.183 1245.5 385.287L1245.5 415.009C1245.5 419.113 1242.48 422.44 1238.75 422.44L1233.44 422.44 1221.67 422.44 1219.71 432.235C1214.7 444.144 1202.98 452.5 1189.31 452.5 1171.09 452.5 1156.32 437.645 1156.32 419.32L1158.89 406.507 1158 408.31C1156.34 412.653 1155.41 417.428 1155.41 422.44L1082.41 422.44 1039.95 422.44 1014 422.44 1014.62 419.32C1014.62 400.995 999.855 386.14 981.636 386.14L981.446 386.159 987.904 386.814C1002.94 389.908 1014.24 403.286 1014.24 419.32 1014.24 437.645 999.475 452.5 981.255 452.5 967.591 452.5 955.867 444.144 950.859 432.235L948.893 422.44 942.111 422.44 941.743 422.44 942.369 419.32C942.369 400.995 927.599 386.14 909.38 386.14L909.214 386.157 915.696 386.814C930.728 389.908 942.036 403.286 942.036 419.32 942.036 437.645 927.267 452.5 909.048 452.5 895.383 452.5 883.659 444.144 878.651 432.235L876.685 422.44 856.387 422.44 636.155 422.44 636.781 419.32 636.188 416.365 634.705 407.911 634.375 407.334 634.189 406.405C633.354 404.42 632.333 402.534 631.147 400.769L629.451 398.701 629.173 398.214 628.748 397.844 627.119 395.858C625.626 394.357 623.992 392.999 622.237 391.806L621.106 391.189 620.824 390.943 618.853 389.959 616.633 388.747 616.082 388.575 615.814 388.441 612.093 387.33 610.441 386.814C608.293 386.372 606.07 386.14 603.792 386.14L603.755 386.144 610.366 386.814 612.093 387.33 616.082 388.575 618.853 389.959 621.106 391.189 628.748 397.844 629.451 398.701 634.375 407.334 636.188 416.365 636.706 419.32C636.706 437.645 621.937 452.5 603.718 452.5 590.053 452.5 578.329 444.144 573.321 432.235L571.355 422.44 557.146 422.44 546.339 422.44 534.107 422.44 519.522 422.44 508.16 422.44 508.786 419.32C508.786 400.995 494.016 386.14 475.797 386.14L475.644 386.155 482.139 386.814C497.172 389.908 508.48 403.286 508.48 419.32 508.48 437.645 493.71 452.5 475.491 452.5 461.827 452.5 450.103 444.144 445.095 432.235L443.129 422.44 435.904 422.44 436.53 419.32 434.48 409.108 434.271 407.911 434.224 407.83 433.938 406.405C431.434 400.45 427.251 395.384 421.986 391.806L420.625 391.148 420.389 390.943C418.802 389.974 417.128 389.135 415.38 388.441L414.455 388.165 413.351 387.632 411.961 387.42 409.932 386.814 404.058 386.218 403.542 386.14 403.413 386.153 404.058 386.218 411.961 387.42 414.455 388.165 420.625 391.148 428.739 398.214 434.224 407.83 434.48 409.108 436.272 419.32C436.272 437.645 421.503 452.5 403.283 452.5 389.619 452.5 377.895 444.144 372.887 432.235L370.921 422.44 130.316 422.44 130.758 420.24 128.35 432.235C123.342 444.144 111.618 452.5 97.9535 452.5 84.2891 452.5 72.5651 444.144 67.5572 432.235L65.591 422.44 40.5001 422.44Z" stroke="#000000" stroke-width="1.33333" stroke-miterlimit="8" fill-rule="evenodd"/></g></svg>