<svg width="1250" height="450" xmlns="http://www.w3.org/2000/svg" xmlns:xlink="http://www.w3.org/1999/xlink" overflow="hidden"><g><path d="M1188.54 396.094C1175.79 396.094 1165.45 406.492 1165.45 419.32 1165.45 432.147 1175.79 442.546 1188.54 442.546 1201.29 442.546 1211.63 432.147 1211.63 419.32 1211.63 406.492 1201.29 396.094 1188.54 396.094ZM981.729 396.094C968.975 396.094 958.637 406.492 958.637 419.32 958.637 432.147 968.975 442.546 981.729 442.546 994.482 442.546 1004.82 432.147 1004.82 419.32 1004.82 406.492 994.482 396.094 981.729 396.094ZM676.141 396.094C663.387 396.094 653.049 406.492 653.049 419.32 653.049 432.147 663.387 442.546 676.141 442.546 688.894 442.546 699.233 432.147 699.233 419.32 699.233 406.492 688.894 396.094 676.141 396.094ZM603.885 396.094C591.131 396.094 580.793 406.492 580.793 419.32 580.793 432.147 591.131 442.546 603.885 442.546 616.638 442.546 626.977 432.147 626.977 419.32 626.977 406.492 616.638 396.094 603.885 396.094ZM475.797 396.094C463.044 396.094 452.705 406.492 452.705 419.32 452.705 432.147 463.044 442.546 475.797 442.546 488.551 442.546 498.889 432.147 498.889 419.32 498.889 406.492 488.551 396.094 475.797 396.094ZM403.542 396.094C390.788 396.094 380.449 406.492 380.449 419.32 380.449 432.147 390.788 442.546 403.542 442.546 416.295 442.546 426.634 432.147 426.634 419.32 426.634 406.492 416.295 396.094 403.542 396.094ZM170.209 396.094C157.456 396.094 147.117 406.492 147.117 419.32 147.117 432.147 157.456 442.546 170.209 442.546 182.963 442.546 193.301 432.147 193.301 419.32 193.301 406.492 182.963 396.094 170.209 396.094ZM97.9535 396.094C85.2 396.094 74.8613 406.492 74.8613 419.32 74.8613 432.147 85.2 442.546 97.9535 442.546 110.707 442.546 121.046 432.147 121.046 419.32 121.046 406.492 110.707 396.094 97.9535 396.094ZM101.749 386.525 104.602 386.814 104.602 386.814ZM475.797 386.14C457.578 386.14 442.808 400.995 442.808 419.32 442.808 400.995 457.578 386.14 475.797 386.14 494.016 386.14 508.786 400.995 508.786 419.32 508.786 400.995 494.016 386.14 475.797 386.14ZM97.9535 386.14C95.6761 386.14 93.4526 386.372 91.3051 386.814L91.3037 386.814 85.8574 388.441 85.4648 388.637 85.1127 388.747 83.6945 389.521 80.8475 390.943 80.4403 391.298 79.5092 391.806C77.7541 392.999 76.1193 394.357 74.6269 395.858L73.1847 397.616 72.4977 398.214 72.0498 399 70.5987 400.769C69.413 402.534 68.3918 404.42 67.5572 406.405L67.4112 407.132 66.9665 407.911 64.9648 419.319 64.9647 419.32 65.4024 421.5 64.9647 419.32 64.9648 419.319 67.4112 407.132 72.0498 399 73.1847 397.616 80.4403 391.298 83.6945 389.521 85.4648 388.637 91.3037 386.814 91.3051 386.814 97.9535 386.14ZM1188.4 386.14 1186.9 386.306 1188.47 386.147ZM1131.91 247.413C1126.44 247.413 1122 252.294 1122 258.314L1122 301.915C1122 307.936 1126.44 312.816 1131.91 312.816L1214.88 312.816C1220.35 312.816 1224.79 307.936 1224.79 301.915L1224.79 258.314C1224.79 252.294 1220.35 247.413 1214.88 247.413ZM546.339 238.5 1009.4 238.5 1039.95 269.157 1039.95 377.856 1082.41 377.856 1082.41 262.458 1082.53 262.458 1082.53 249.401C1082.53 244.886 1085.02 241.012 1088.58 239.357L1092.44 238.5 1105.7 238.5 1223.54 238.5 1227.39 239.357C1230.95 241.012 1233.44 244.886 1233.44 249.401L1233.44 377.856 1238.75 377.856C1242.48 377.856 1245.5 381.183 1245.5 385.287L1245.5 415.009C1245.5 419.113 1242.48 422.44 1238.75 422.44L1233.44 422.44 1221.39 422.44 1221.16 421.174 1218.94 432.235C1213.93 444.144 1202.2 452.5 1188.54 452.5 1174.88 452.5 1163.15 444.144 1158.14 432.235L1155.78 420.446 1155.41 422.44 1082.41 422.44 1039.95 422.44 1014.09 422.44 1012.12 432.235C1007.12 444.144 995.393 452.5 981.729 452.5 963.509 452.5 948.74 437.645 948.74 419.32L949.383 415.657 951.044 407.382 956.036 398.629 956.636 397.898 964.371 391.163 966.383 390.064 969.394 388.56 972.938 387.454 975.08 386.814 981.682 386.145 981.636 386.14C979.359 386.14 977.135 386.372 974.988 386.814L972.938 387.454 969.633 388.441 969.394 388.56 968.795 388.747 966.383 390.064 964.623 390.943 964.371 391.163 963.192 391.806C961.437 392.999 959.802 394.357 958.31 395.858L956.636 397.898 956.273 398.214 956.036 398.629 954.281 400.769C953.096 402.534 952.075 404.42 951.24 406.405L951.044 407.382 950.742 407.911 949.383 415.657 948.647 419.32 949.274 422.44 942.111 422.44 878.557 422.44 856.387 422.44 708.503 422.44 706.537 432.235C701.529 444.144 689.805 452.5 676.141 452.5 657.921 452.5 643.152 437.645 643.152 419.32L643.795 415.657 645.456 407.382 650.448 398.629 651.048 397.898 658.783 391.163 660.795 390.064 663.806 388.56 667.35 387.454 669.492 386.814 676.094 386.145 676.048 386.14C673.771 386.14 671.547 386.372 669.4 386.814L667.35 387.454 664.045 388.441 663.806 388.56 663.207 388.747 660.795 390.064 659.035 390.943 658.783 391.163 657.604 391.806C655.849 392.999 654.214 394.357 652.721 395.858L651.048 397.898 650.685 398.214 650.448 398.629 648.693 400.769C647.508 402.534 646.487 404.42 645.652 406.405L645.456 407.382 645.154 407.911 643.795 415.657 643.059 419.32 643.686 422.44 636.247 422.44 634.281 432.235C629.273 444.144 617.549 452.5 603.885 452.5 585.666 452.5 570.896 437.645 570.896 419.32L571.539 415.656 573.2 407.382 578.192 398.629 578.792 397.898 586.527 391.163 588.539 390.064 591.551 388.56 595.094 387.454 597.237 386.814 603.839 386.145 603.792 386.14C601.515 386.14 599.291 386.372 597.144 386.814L595.094 387.454 591.789 388.441 591.551 388.56 590.952 388.747 588.539 390.064 586.779 390.943 586.527 391.163 585.348 391.806C583.593 392.999 581.958 394.357 580.466 395.858L578.792 397.898 578.429 398.214 578.192 398.629 576.438 400.769C575.252 402.534 574.231 404.42 573.396 406.405L573.2 407.382 572.898 407.911 571.539 415.656 570.804 419.32 571.43 422.44 557.146 422.44 546.339 422.44 534.107 422.44 534.107 422.44 508.16 422.44 506.194 432.235C501.186 444.144 489.462 452.5 475.797 452.5 462.133 452.5 450.409 444.144 445.401 432.235L443.435 422.44 435.904 422.44 436.53 419.32 436.53 419.318 434.529 407.911 434.084 407.132 433.938 406.405C433.103 404.42 432.082 402.534 430.896 400.769L429.445 398.999 428.997 398.214 428.31 397.616 426.868 395.858C425.376 394.357 423.741 392.999 421.986 391.806L421.055 391.298 420.647 390.943 417.801 389.522 416.382 388.747 416.03 388.637 415.638 388.441 410.192 386.814 416.03 388.637 417.801 389.522 421.055 391.298 428.31 397.616 429.445 398.999 434.084 407.132 436.53 419.318 436.53 419.32C436.53 437.645 421.761 452.5 403.542 452.5 389.877 452.5 378.153 444.144 373.145 432.235L371.179 422.44 202.572 422.44 200.606 432.235C195.598 444.144 183.874 452.5 170.209 452.5 151.99 452.5 137.221 437.645 137.221 419.32L137.221 419.319 139.667 407.132 144.306 398.999 145.44 397.616 152.696 391.298 155.95 389.522 157.721 388.637 163.56 386.814 163.561 386.814 170.209 386.14 170.209 386.14C167.932 386.14 165.708 386.372 163.561 386.814L163.56 386.814 158.113 388.441 157.721 388.637 157.369 388.747 155.95 389.522 153.104 390.943 152.696 391.298 151.765 391.806C150.01 392.999 148.375 394.357 146.883 395.858L145.44 397.616 144.754 398.214 144.306 398.999 142.855 400.769C141.669 402.534 140.648 404.42 139.813 406.405L139.667 407.132 139.222 407.911 137.221 419.319 137.221 419.32 137.847 422.44 130.316 422.44 130.942 419.32C130.942 405.576 122.634 393.784 110.794 388.747 122.634 393.784 130.942 405.576 130.942 419.32 130.942 437.645 116.173 452.5 97.9535 452.5 84.2891 452.5 72.5651 444.144 67.5572 432.235L65.591 422.44 40.5001 422.44 40.5001 238.5 503.565 238.5 534.107 269.157 534.107 378.16 546.339 378.16Z" stroke="#000000" stroke-width="1.33333" stroke-miterlimit="8" fill-rule="evenodd"/></g></svg>