<svg width="1250" height="450" xmlns="http://www.w3.org/2000/svg" xmlns:xlink="http://www.w3.org/1999/xlink" overflow="hidden"><g><path d="M170.209 396.094C157.456 396.094 147.117 406.492 147.117 419.32 147.117 432.147 157.456 442.546 170.209 442.546 182.963 442.546 193.302 432.147 193.302 419.32 193.302 406.492 182.963 396.094 170.209 396.094ZM97.9535 396.094C85.2 396.094 74.8613 406.492 74.8613 419.32 74.8613 432.147 85.2 442.546 97.9535 442.546 110.707 442.546 121.046 432.147 121.046 419.32 121.046 406.492 110.707 396.094 97.9535 396.094ZM675.956 395.52C663.202 395.52 652.863 405.919 652.863 418.746 652.863 431.574 663.202 441.973 675.956 441.973 688.709 441.973 699.048 431.574 699.048 418.746 699.048 405.919 688.709 395.52 675.956 395.52ZM603.7 395.52C590.946 395.52 580.608 405.919 580.608 418.746 580.608 431.574 590.946 441.973 603.7 441.973 616.453 441.973 626.792 431.574 626.792 418.746 626.792 405.919 616.453 395.52 603.7 395.52ZM475.705 395.52C462.951 395.52 452.613 405.919 452.613 418.746 452.613 431.574 462.951 441.973 475.705 441.973 488.458 441.973 498.797 431.574 498.797 418.746 498.797 405.919 488.458 395.52 475.705 395.52ZM403.449 395.52C390.696 395.52 380.357 405.919 380.357 418.746 380.357 431.574 390.696 441.973 403.449 441.973 416.202 441.973 426.541 431.574 426.541 418.746 426.541 405.919 416.202 395.52 403.449 395.52ZM1188.01 394.947C1175.26 394.947 1164.92 405.346 1164.92 418.173 1164.92 431 1175.26 441.399 1188.01 441.399 1200.77 441.399 1211.1 431 1211.1 418.173 1211.1 405.346 1200.77 394.947 1188.01 394.947ZM981.451 394.947C968.698 394.947 958.359 405.346 958.359 418.173 958.359 431 968.698 441.399 981.451 441.399 994.204 441.399 1004.54 431 1004.54 418.173 1004.54 405.346 994.204 394.947 981.451 394.947ZM909.195 394.947C896.442 394.947 886.103 405.346 886.103 418.173 886.103 431 896.442 441.399 909.195 441.399 921.949 441.399 932.287 431 932.287 418.173 932.287 405.346 921.949 394.947 909.195 394.947ZM101.749 386.525 104.602 386.814 104.602 386.814ZM97.9535 386.14C95.6761 386.14 93.4526 386.372 91.3051 386.814L91.3037 386.814 85.8574 388.441 85.4649 388.637 85.1127 388.747 83.6945 389.521 80.8477 390.943 80.4403 391.298 79.5092 391.806C77.7541 392.999 76.1194 394.357 74.6269 395.858L73.1847 397.616 72.4978 398.214 72.0498 399 70.5987 400.769C69.413 402.534 68.3918 404.42 67.5572 406.405L67.4112 407.132 66.9665 407.911 64.9649 419.319 64.9647 419.32 65.4024 421.5 64.9647 419.32 64.9649 419.319 67.4112 407.132 72.0498 399 73.1847 397.616 80.4403 391.298 83.6945 389.521 85.4649 388.637 91.3037 386.814 91.3051 386.814 97.9535 386.14ZM1131.91 247.413C1126.44 247.413 1122 252.294 1122 258.314L1122 301.915C1122 307.936 1126.44 312.816 1131.91 312.816L1214.88 312.816C1220.35 312.816 1224.79 307.936 1224.79 301.915L1224.79 258.314C1224.79 252.294 1220.35 247.413 1214.88 247.413ZM546.339 238.5 1009.4 238.5 1039.95 269.157 1039.95 377.856 1082.41 377.856 1082.41 262.458 1082.53 262.458 1082.53 249.401C1082.53 244.886 1085.02 241.012 1088.58 239.357L1092.44 238.5 1105.7 238.5 1223.54 238.5 1227.39 239.357C1230.95 241.012 1233.44 244.886 1233.44 249.401L1233.44 377.856 1238.75 377.856C1242.48 377.856 1245.5 381.183 1245.5 385.287L1245.5 415.009C1245.5 419.113 1242.48 422.44 1238.75 422.44L1233.44 422.44 1221.39 422.44 1220.8 419.2 1218.41 431.088C1213.4 442.997 1201.68 451.353 1188.01 451.353 1174.35 451.353 1162.62 442.997 1157.62 431.088L1155.64 421.221 1155.41 422.44 1082.41 422.44 1039.95 422.44 1014 422.44 1014.62 419.32 1014.42 418.285 1011.85 431.088C1006.84 442.997 995.115 451.353 981.451 451.353 967.787 451.353 956.063 442.997 951.055 431.088L948.67 419.208 948.647 419.32 949.274 422.44 942.111 422.44 941.743 422.44 942.369 419.32 942.161 418.285 939.591 431.088C934.584 442.997 922.86 451.353 909.195 451.353 895.531 451.353 883.807 442.997 878.799 431.088L876.414 419.208 876.392 419.32 877.018 422.44 856.387 422.44 708.411 422.44 709.037 419.32 708.933 418.803 706.352 431.662C701.344 443.571 689.62 451.927 675.956 451.927 662.291 451.927 650.567 443.571 645.559 431.662L643.071 419.264 643.059 419.32 643.686 422.44 636.155 422.44 636.781 419.32 636.677 418.803 634.096 431.662C629.088 443.571 617.364 451.927 603.7 451.927 590.035 451.927 578.311 443.571 573.303 431.662L570.815 419.264 570.804 419.32 571.43 422.44 557.146 422.44 546.339 422.44 534.107 422.44 534.107 422.44 508.16 422.44 508.786 419.32 508.682 418.803 506.101 431.662C501.093 443.571 489.369 451.927 475.705 451.927 462.04 451.927 450.316 443.571 445.308 431.662L442.82 419.264 442.808 419.32 443.435 422.44 435.904 422.44 436.53 419.32 436.427 418.802 433.845 431.662C428.837 443.571 417.113 451.927 403.449 451.927 389.785 451.927 378.061 443.571 373.053 431.662L370.564 419.264 370.553 419.32 371.179 422.44 202.572 422.44 200.606 432.235C195.598 444.144 183.874 452.5 170.209 452.5 151.99 452.5 137.221 437.645 137.221 419.32L137.221 419.319 139.667 407.132 144.306 398.999 145.44 397.616 152.696 391.298 155.95 389.522 157.721 388.637 163.56 386.814 163.561 386.814 170.209 386.14 170.209 386.14C167.932 386.14 165.708 386.372 163.561 386.814L163.56 386.814 158.113 388.441 157.721 388.637 157.369 388.747 155.95 389.522 153.104 390.943 152.696 391.298 151.765 391.806C150.01 392.999 148.375 394.357 146.883 395.858L145.44 397.616 144.754 398.214 144.306 398.999 142.855 400.769C141.669 402.534 140.648 404.42 139.813 406.405L139.667 407.132 139.222 407.911 137.221 419.319 137.221 419.32 137.847 422.44 130.316 422.44 130.942 419.32C130.942 405.576 122.634 393.784 110.794 388.747 122.634 393.784 130.942 405.576 130.942 419.32 130.942 437.645 116.173 452.5 97.9535 452.5 84.2891 452.5 72.5651 444.144 67.5572 432.235L65.591 422.44 40.5001 422.44 40.5001 238.5 503.565 238.5 534.107 269.157 534.107 378.16 546.339 378.16Z" stroke="#000000" stroke-width="1.33333" stroke-miterlimit="8" fill-rule="evenodd"/></g></svg>