<svg xmlns="http://www.w3.org/2000/svg" viewBox="0 0 68 85" x="0px" y="0px"><path fill="#fff" d="M416.000001,700.002474 L416,700 L416,660.002859 C416,657.793528 417.798756,656 420.003299,656 L479.996701,656 C482.206177,656 484,657.798658 484,660.003299 L484,719.996701 C484,722.206585 482.2038,724 479.997141,724 L440,724 L439.997526,723.999999 L439.995053,724 L420.004947,724 C417.792957,724 416,722.207425 416,719.995053 L416,700.004947 L416.000001,700.002473 L416.000001,700.002474 Z M443.999997,719.99961 C454.130497,719.998631 480,719.996182 480,719.996701 C480,719.996701 479.995943,674.72291 479.996239,662.832188 L464.828427,678 L472,678 C473.104569,678 474,678.895431 474,680 C474,681.104569 473.104569,682 472,682 L460,682 C458.895431,682 458,681.104569 458,680 L458,668 C458,666.895431 458.895431,666 460,666 C461.104569,666 462,666.895431 462,668 L462,675.171573 L477.17133,660.000243 C465.291104,660.001252 420,660.00496 420,660.002859 L420,696.000003 L420.004947,696 L439.995053,696 C442.207043,696 444,697.792575 444,700.004947 L444,719.995053 L443.999997,719.99961 L443.999997,719.99961 Z M440,700.004947 C440,700.001905 420.004947,700 420.004947,700 C420.001905,700 420,719.995053 420,719.995053 C420,719.998095 439.995053,720 439.995053,720 C439.998095,720 440,700.004947 440,700.004947 Z" transform="translate(-416 -656)"/></svg>