<svg xmlns="http://www.w3.org/2000/svg" xmlns:xlink="http://www.w3.org/1999/xlink" width="500" zoomAndPan="magnify" viewBox="0 0 375 374.999991" height="500" preserveAspectRatio="xMidYMid meet" version="1.0"><defs><clipPath id="d38ceacbca"><path d="M 24 0 L 263.988281 0 L 263.988281 337.5 L 24 337.5 Z M 24 0 " clip-rule="nonzero"/></clipPath><clipPath id="aebb9ffbb5"><path d="M 218.953125 249.597656 L 337.453125 249.597656 L 337.453125 368.097656 L 218.953125 368.097656 Z M 218.953125 249.597656 " clip-rule="nonzero"/></clipPath></defs><g clip-path="url(#d38ceacbca)"><path fill="#007bff" d="M 84.292969 48.011719 C 84.585938 35.457031 94.859375 25.371094 107.480469 25.371094 L 118.769531 25.371094 C 118.769531 11.367188 130.136719 0 144.144531 0 C 158.144531 0 169.511719 11.367188 169.511719 25.371094 C 169.511719 25.371094 180.800781 25.371094 180.800781 25.371094 C 193.425781 25.371094 203.695312 35.457031 203.988281 48.011719 L 227.910156 48.011719 C 248 48.011719 264.28125 64.300781 264.28125 84.386719 C 264.28125 137.066406 264.28125 248.445312 264.28125 301.125 C 264.28125 321.21875 248 337.5 227.910156 337.5 C 184.710938 337.5 103.570312 337.5 60.375 337.5 C 40.285156 337.5 24 321.21875 24 301.125 C 24 248.445312 24 137.066406 24 84.386719 C 24 64.300781 40.285156 48.011719 60.375 48.011719 Z M 203.992188 63.230469 L 227.910156 63.230469 C 239.59375 63.230469 249.0625 72.703125 249.0625 84.386719 C 249.0625 137.066406 249.0625 248.445312 249.0625 301.125 C 249.0625 312.808594 239.59375 322.28125 227.910156 322.28125 C 227.910156 322.28125 60.410156 322.28125 60.375 322.28125 C 48.695312 322.28125 39.222656 312.808594 39.222656 301.125 C 39.222656 248.445312 39.222656 137.066406 39.222656 84.386719 C 39.222656 72.703125 48.695312 63.230469 60.375 63.230469 L 84.289062 63.230469 L 84.289062 65.425781 C 84.289062 78.234375 94.671875 88.617188 107.480469 88.617188 C 128.613281 88.617188 159.667969 88.617188 180.800781 88.617188 C 193.609375 88.617188 203.992188 78.234375 203.992188 65.425781 Z M 229.53125 270.074219 L 58.75 270.074219 L 58.75 279.890625 L 229.53125 279.890625 Z M 229.53125 228.855469 L 58.75 228.855469 L 58.75 238.675781 L 229.53125 238.675781 Z M 229.53125 187.640625 L 58.75 187.640625 L 58.75 197.457031 L 229.53125 197.457031 Z M 229.53125 146.417969 L 58.75 146.417969 L 58.75 156.242188 L 229.53125 156.242188 Z M 229.53125 105.199219 L 58.75 105.199219 L 58.75 115.019531 L 229.53125 115.019531 Z M 144.144531 9.265625 C 148.339844 9.265625 151.753906 12.679688 151.753906 16.875 C 151.753906 21.078125 148.339844 24.488281 144.144531 24.488281 C 139.941406 24.488281 136.535156 21.078125 136.535156 16.875 C 136.535156 12.679688 139.941406 9.265625 144.144531 9.265625 Z M 144.144531 9.265625 " fill-opacity="1" fill-rule="evenodd"/></g><g clip-path="url(#aebb9ffbb5)"><path fill="#007bff" d="M 278.226562 249.597656 C 245.488281 249.597656 218.953125 276.132812 218.953125 308.871094 C 218.953125 341.605469 245.488281 368.144531 278.226562 368.144531 C 310.960938 368.144531 337.5 341.605469 337.5 308.871094 C 337.5 276.132812 310.960938 249.597656 278.226562 249.597656 Z M 293.554688 332.578125 L 274.035156 313.0625 C 272.921875 311.945312 272.296875 310.441406 272.296875 308.871094 L 272.296875 279.234375 C 272.296875 275.960938 274.953125 273.304688 278.226562 273.304688 C 281.496094 273.304688 284.152344 275.960938 284.152344 279.234375 L 284.152344 306.417969 L 301.933594 324.199219 C 304.246094 326.511719 304.246094 330.269531 301.933594 332.578125 C 299.621094 334.890625 295.863281 334.890625 293.554688 332.578125 Z M 293.554688 332.578125 " fill-opacity="1" fill-rule="nonzero"/></g></svg>