<svg width="700" height="900" xmlns="http://www.w3.org/2000/svg" xmlns:xlink="http://www.w3.org/1999/xlink" version="1.1" x="0px" y="0px" viewBox="0 0 100 125" enable-background="new 0 0 100 100" xml:space="preserve"><path d="M15.64,56.863c0.092,0,0.258,0,0.51,0c0,2.688,2.188,4.876,4.876,4.876c0.502,0,0.976-0.098,1.432-0.239  c0.456,0.14,0.931,0.239,1.433,0.239c0.883,0,1.702-0.254,2.418-0.667c0.716,0.413,1.535,0.667,2.418,0.667  c0.518,0,1.009-0.103,1.478-0.253c0.469,0.15,0.96,0.253,1.478,0.253c2.688,0,4.876-2.188,4.876-4.876h1.081  c0,2.688,2.186,4.876,4.874,4.876c0.502,0,0.977-0.098,1.433-0.239c0.456,0.14,0.931,0.239,1.433,0.239  c0.883,0,1.702-0.254,2.417-0.667c0.716,0.413,1.535,0.667,2.419,0.667c0.518,0,1.009-0.103,1.478-0.253  c0.469,0.15,0.96,0.253,1.478,0.253c2.688,0,4.874-2.188,4.874-4.876h1.02c0,2.688,2.186,4.876,4.874,4.876  c0.502,0,0.977-0.098,1.433-0.239c0.456,0.14,0.931,0.239,1.433,0.239c0.883,0,1.702-0.254,2.417-0.667  c0.716,0.413,1.535,0.667,2.419,0.667c0.518,0,1.009-0.103,1.478-0.253c0.469,0.15,0.96,0.253,1.478,0.253  c2.688,0,4.874-2.188,4.874-4.876c0.408,0,0.89,0,1.416,0v4.786h0.922v-1.517l1.414,0.263v2.052h0.922v-5.584  c1.443,0,2.678,0,3.048,0V42.232l-5.072-4.87H49.424v11.899h-1.229V37.363H12.804v13.203v3.798  C12.804,56.527,14.982,56.863,15.64,56.863z M83.226,56.863v2.594l-1.414-0.262v-2.333C82.278,56.863,82.753,56.863,83.226,56.863z   M74.6,59.281c-1.337,0-2.419-1.084-2.419-2.418c0-1.337,1.082-2.419,2.419-2.419c1.334,0,2.417,1.082,2.417,2.419  C77.017,58.197,75.935,59.281,74.6,59.281z M61.525,56.863c0-0.683,0.286-1.297,0.739-1.736c-0.208,0.541-0.333,1.122-0.333,1.736  c0,0.613,0.126,1.195,0.333,1.735C61.811,58.159,61.525,57.545,61.525,56.863z M64.388,56.863c0-1.337,1.082-2.419,2.419-2.419  c1.334,0,2.417,1.082,2.417,2.419c0,1.334-1.082,2.418-2.417,2.418C65.471,59.281,64.388,58.197,64.388,56.863z M53.173,59.281  c-1.337,0-2.419-1.084-2.419-2.418c0-1.337,1.082-2.419,2.419-2.419c1.334,0,2.417,1.082,2.417,2.419  C55.59,58.197,54.507,59.281,53.173,59.281z M40.097,56.863c0-0.683,0.286-1.297,0.739-1.736c-0.208,0.541-0.334,1.122-0.334,1.736  c0,0.613,0.126,1.195,0.334,1.735C40.383,58.159,40.097,57.545,40.097,56.863z M42.961,56.863c0-1.337,1.082-2.419,2.419-2.419  c1.334,0,2.417,1.082,2.417,2.419c0,1.334-1.082,2.418-2.417,2.418C44.043,59.281,42.961,58.197,42.961,56.863z M31.683,59.281  c-1.336,0-2.418-1.084-2.418-2.418c0-1.337,1.082-2.419,2.418-2.419s2.418,1.082,2.418,2.419  C34.101,58.197,33.018,59.281,31.683,59.281z M18.607,56.863c0-0.684,0.286-1.298,0.742-1.738c-0.209,0.541-0.335,1.123-0.335,1.738  s0.126,1.195,0.335,1.738C18.893,58.16,18.607,57.546,18.607,56.863z M21.472,56.863c0-1.337,1.082-2.419,2.418-2.419  s2.418,1.082,2.418,2.419c0,1.334-1.082,2.418-2.418,2.418S21.472,58.197,21.472,56.863z"/></svg>