<svg height="500" width="1000" xmlns="http://www.w3.org/2000/svg" xmlns:xlink="http://www.w3.org/1999/xlink" version="1.1" x="0px" y="0px" viewBox="0 0 100 125" enable-background="new 0 0 100 100" xml:space="preserve"><path d="M15.64,56.863c0.092,0,0.258,0,0.51,0c0,2.688,2.188,4.876,4.876,4.876c0.502,0,0.976-0.098,1.432-0.24  c0.456,0.142,0.931,0.24,1.433,0.24c0.883,0,1.702-0.254,2.418-0.667c0.716,0.413,1.535,0.667,2.418,0.667  c0.518,0,1.009-0.103,1.478-0.254c0.469,0.151,0.96,0.254,1.478,0.254c0.836,0,1.613-0.232,2.302-0.605  c0.689,0.373,1.465,0.605,2.302,0.605c0.518,0,1.009-0.103,1.478-0.254c0.469,0.151,0.96,0.254,1.479,0.254  c2.688,0,4.876-2.188,4.876-4.876h34.18c0.238,0,1.081,0,2.16,0v4.786h0.922v-1.516l1.414,0.263v2.051h0.922v-5.584  c1.62,0,3.074,0,3.48,0V42.232l-5.072-4.87H12.804v13.203v3.798C12.804,56.527,14.982,56.863,15.64,56.863z M82.794,56.863v2.594  l-1.414-0.262v-2.333C81.839,56.863,82.315,56.863,82.794,56.863z M39.243,59.281c-1.336,0-2.418-1.084-2.418-2.418  c0-1.337,1.082-2.419,2.418-2.419s2.418,1.082,2.418,2.419C41.661,58.197,40.579,59.281,39.243,59.281z M18.607,56.863  c0-0.684,0.286-1.298,0.742-1.739c-0.209,0.542-0.335,1.124-0.335,1.739c0,0.613,0.126,1.195,0.335,1.736  C18.893,58.16,18.607,57.546,18.607,56.863z M21.472,56.863c0-1.337,1.082-2.419,2.418-2.419s2.418,1.082,2.418,2.419  c0,1.334-1.082,2.418-2.418,2.418S21.472,58.197,21.472,56.863z M29.265,56.863c0-1.337,1.082-2.419,2.418-2.419  s2.418,1.082,2.418,2.419c0,1.334-1.082,2.418-2.418,2.418S29.265,58.197,29.265,56.863z"/></svg>